<?xml version="1.0" encoding="utf-8"?>
<!-- Generator: Adobe Illustrator 16.0.0, SVG Export Plug-In . SVG Version: 6.00 Build 0)  -->
<!DOCTYPE svg PUBLIC "-//W3C//DTD SVG 1.1//EN" "http://www.w3.org/Graphics/SVG/1.1/DTD/svg11.dtd">
<svg version="1.1" id="Ebene_1" xmlns="http://www.w3.org/2000/svg" xmlns:xlink="http://www.w3.org/1999/xlink" x="0px" y="0px"
	 width="595.28px" height="841.89px" viewBox="0 0 595.28 841.89" enable-background="new 0 0 595.28 841.89" xml:space="preserve">
<g>
	<path fill="none" d="M386.463,307.669c0.229-0.007,0.449-0.049,0.683-0.049c2.526,0,4.881,0.468,6.991,1.23
		c-3.654-2.953-6.039-7.411-6.039-12.474c0-0.099,0.026-0.187,0.031-0.286c-0.013,0-0.019,0-0.031,0
		c-1.203,0-2.316-0.331-3.304-0.869c1.464,2.375,2.348,5.145,2.348,8.135C387.142,304.861,386.86,306.29,386.463,307.669z"/>
	<path d="M122.68,470.449c4.428-1.706,9.598-2.411,14.349-2.138c12.669,0.739,14.662,3.667,13.564,16.142
		c-3.063,34.583-6.088,69.176-8.866,103.791c4.191,3.063,8.493,5.986,12.867,8.802c5.353-14.844,8.211-30.219,8.836-46.358
		c1.531-39.374,4.408-78.695,6.541-118.045c0.759-13.938,3.975-16.964,18.182-15.756c15.645,1.322,26.287,10.559,29.86,26.013
		c0.655,2.834,1.01,5.737,1.638,9.418c4.611-7.624,8.154-14.715,12.841-20.94c6.748-8.978,15.389-16.057,27.158-16.643
		c13.922-0.697,24.32,10.417,28.618,28.988c5.083,21.98,3.887,44.053,1.894,66.262c-2.039,22.602-3.296,45.275-4.649,67.94
		c-0.243,4.196,0.709,8.473,1.281,14.545c2.724-1.333,4.47-3.593,5.075-4.847c5.799-11.959,10.42-25.147,11.544-38.093
		c5.174-59.689,8.97-119.498,13.061-179.282c0.731-10.63,0.736-21.337,0.645-32.005c-0.046-5.235,1.626-7.853,7.006-9.087
		c24.278-5.59,43.597,9.552,43.36,35.67c-0.185,19.115-2.348,38.212-3.611,57.319c-0.054,0.789,0.063,1.589,0.175,3.639
		c3.757-7.46,6.854-13.956,10.262-20.292c9.611-17.893,25.496-26.229,45-27.136c16.514-0.77,27.753,8.848,35.435,22.595
		c7.78,13.93,9.373,29.015,6.718,44.64c-5.018,29.482-17.913,50.362-45.284,72.813c4.561,15.309,10.219,30.365,22.06,42.085
		c7.348,7.278,15.128,6.547,19.665-2.304c6.599-12.875,11.69-26.191,12.33-41.23c1.056-24.309,2.991-48.609,5.658-72.793
		c1.832-16.669,8.259-31.552,25.264-38.504c4.604-1.887,10.147-2.526,15.154-2.176c12.135,0.857,14.013,3.811,12.938,15.926
		c-2.797,31.563-5.54,63.13-8.096,94.713c25.074-40.358,39.594-87.95,39.594-138.956c0-20.586-2.357-40.624-6.823-59.854
		c0,0-0.118,0.054-0.163,0.073c-1.328-7.541-7.872-13.279-15.793-13.279c-2.523,0-4.874,0.629-6.999,1.662
		c-1.579-4.275-5.655-7.346-10.479-7.346c-0.344,0-0.671,0.069-1.006,0.099c-1.745-3.291-5.168-5.563-9.153-5.563
		c-2.586,0-4.922,0.983-6.743,2.545c-0.582-0.268-1.196-0.473-1.829-0.633c0.008-0.125,0.039-0.244,0.039-0.37
		c0-2.202-0.872-4.187-2.269-5.677c2.775,1.535,5.922,2.484,9.317,2.484c10.706,0,19.386-8.679,19.386-19.39
		c0-10.707-8.68-19.386-19.386-19.386c-10.707,0-19.387,8.68-19.387,19.386c0,6.008,2.789,11.309,7.075,14.863
		c-0.944-0.374-1.97-0.595-3.047-0.595c-4.592,0-8.314,3.722-8.314,8.314c0,2.93,1.521,5.49,3.807,6.969
		c-0.466,1.211-0.748,2.514-0.748,3.89c0,3.441,1.632,6.473,4.131,8.462c-0.396,0.674-0.784,1.353-1.085,2.088
		c-2.119-1.677-4.759-2.713-7.666-2.713c-4.371,0-8.201,2.264-10.418,5.677c-2.496-2.987-6.103-4.96-10.21-5.296
		c-2.828-5.182-8.259-8.741-14.575-8.741c-6.576,0-12.208,3.841-14.92,9.374c-2.934-2.348-6.603-3.81-10.653-3.81
		c-4.652,0-8.862,1.866-11.949,4.876c-0.315-0.663-0.724-1.272-1.203-1.821c6.18-2.248,10.619-8.119,10.619-15.077
		c0-1.086-0.116-2.149-0.32-3.174c1.458,7.094,7.737,12.437,15.27,12.437c8.612,0,15.592-6.98,15.592-15.591
		s-6.979-15.591-15.592-15.591c-8.61,0-15.589,6.98-15.589,15.591c0,1.052,0.11,2.081,0.307,3.071
		c-1.504-7.332-7.992-12.844-15.769-12.844c-4.227,0-8.039,1.665-10.913,4.324c-1.269-1.448-3.112-2.377-5.189-2.377
		c-3.833,0-6.934,3.102-6.934,6.935c0,0.838,0.17,1.631,0.445,2.377c-2.721-2.316-6.203-3.768-10.056-3.768
		c-8.611,0-15.591,6.98-15.591,15.591c0,2.237,0.488,4.352,1.338,6.275c-0.693,0.153-1.353,0.381-2.009,0.622
		c-3.212-6.618-9.936-11.221-17.788-11.221c-5.909,0-11.161,2.637-14.792,6.745c-0.297-0.229-0.609-0.435-0.937-0.618
		c0.7-2.118,1.097-4.377,1.097-6.729c0-4.423-1.346-8.531-3.65-11.941c1.018-0.167,1.996-0.434,2.911-0.831
		c-0.396,1.098-0.647,2.264-0.647,3.499c0,5.746,4.656,10.402,10.401,10.402c5.742,0,10.399-4.656,10.399-10.402
		c0-5.742-4.657-10.398-10.399-10.398c-1.182,0-2.297,0.24-3.357,0.603c0.733-1.593,1.166-3.35,1.166-5.22
		c0-6.938-5.623-12.563-12.561-12.563c-6.939,0-12.563,5.625-12.563,12.563c0,1.135,0.197,2.213,0.484,3.261
		c-1.151-0.19-2.321-0.317-3.525-0.317c-11.784,0-21.341,9.556-21.341,21.345c0,3.079,0.663,5.998,1.841,8.642
		c-0.255-0.022-0.5-0.076-0.763-0.076c-0.544,0-1.07,0.062-1.584,0.161c-1.672-7.849-8.119-13.861-16.144-15.012
		c6.016-3.334,10.139-9.67,10.139-17.035c0-10.794-8.752-19.542-19.543-19.542c-10.797,0-19.546,8.749-19.546,19.542
		c0,9.864,7.335,17.942,16.841,19.271c-2.13,1.186-3.989,2.747-5.524,4.618c-1.867-1.695-4.322-2.755-7.045-2.755
		c-5.818,0-10.531,4.717-10.531,10.531c0,0.877,0.141,1.718,0.338,2.535c-3.375,0.187-6.519,1.245-9.148,3.04
		c-3.075-4.577-8.294-7.593-14.227-7.593c-3.402,0-6.55,1.021-9.217,2.731c-0.464-1.787-1.146-3.486-2.035-5.06
		c2.816-2.161,4.66-5.525,4.66-9.346c0-6.531-5.292-11.827-11.818-11.827c-6.036,0-10.962,4.541-11.682,10.382
		c-10.844,0.179-19.706,8.477-20.758,19.089c-3.212,0.324-6.199,1.391-8.824,2.983c-0.605-1.105-1.341-2.134-2.183-3.079
		c4.671-2.743,7.842-7.761,7.842-13.568c0-8.717-7.064-15.785-15.782-15.785c-2.179,0-4.252,0.442-6.142,1.243
		c0.076-0.466,0.145-0.934,0.145-1.418c0-4.8-3.89-8.687-8.684-8.687c-3.196,0-5.955,1.742-7.463,4.306
		c-2.012-1.182-4.329-1.905-6.832-1.905c-7.517,0-13.614,6.097-13.614,13.617c0,7.521,6.097,13.618,13.614,13.618
		c7.083,0,12.836-5.433,13.484-12.345c0.274,0.022,0.534,0.08,0.812,0.08c0.271,0,0.53-0.058,0.797-0.08
		c-1.174,2.206-1.898,4.687-1.898,7.357c0,3.677,1.308,7.015,3.415,9.697c-0.046,0.02-0.092,0.035-0.134,0.054
		c-3.014-3.136-7.236-5.11-11.93-5.11c-6.21,0-11.56,3.459-14.395,8.516c-1.234-1.65-2.918-2.923-4.884-3.643
		c0.031-0.32,0.096-0.625,0.096-0.948c0-5.742-4.656-10.398-10.398-10.398c-5.742,0-10.398,4.656-10.398,10.398
		c0,4.343,2.667,8.058,6.451,9.612c-0.058,0.45-0.138,0.892-0.138,1.353c0,0.529,0.084,1.036,0.157,1.543
		c-2.077-0.931-4.363-1.471-6.787-1.471c-3.882,0-7.406,1.383-10.241,3.611c-0.123-0.396-0.237-0.799-0.404-1.173
		c-0.515-3.167-2.454-5.822-5.148-7.342c3.509-0.426,6.237-3.384,6.237-7.006c0-3.917-3.173-7.095-7.09-7.095
		c-3.92,0-7.094,3.177-7.094,7.095c0,2.309,1.12,4.336,2.827,5.631c-5.147,0.022-9.381,3.791-10.185,8.717
		c-0.416,0.93-0.67,1.935-0.82,2.979c-0.049-0.015-0.163-0.065-0.163-0.065c-3.513,17.168-5.361,34.939-5.365,53.144
		c0,64.102,22.888,122.846,60.917,168.553c1.04-13.271,2.248-26.522,3.974-39.7C100.17,489.146,107.504,476.298,122.68,470.449z
		 M478.397,355.631c11.363-15.042,38.933-18.7,54.494-7.163c6.271,4.648,11.071,10.577,9.543,18.761
		c-1.885,10.018-9.125,15.942-18.254,19.523c-3.033,1.188-6.386,1.6-9.577,2.362c-12.148,1.985-23.578,0.846-33.359-7.46
		C472.188,373.962,471.266,365.081,478.397,355.631z M388.098,296.09c0.013,0,0.019,0,0.031,0c-0.005,0.1-0.031,0.187-0.031,0.286
		c0,5.063,2.385,9.521,6.039,12.474c-2.11-0.762-4.465-1.23-6.991-1.23c-0.233,0-0.454,0.042-0.683,0.049
		c0.397-1.379,0.679-2.808,0.679-4.313c0-2.991-0.884-5.76-2.348-8.135C385.781,295.759,386.895,296.09,388.098,296.09z
		 M99.519,420.823c11.445-15.458,39.526-19.127,55.049-7.186c12.657,9.728,12.028,22.415-0.214,32.9
		c-4.622,3.959-9.072,7.068-18.35,8.509c-12.646,0.938-24.019-0.39-33.724-8.803C93.704,438.806,92.759,429.933,99.519,420.823z"/>
	<path d="M472.035,542.369c-1.534,3.823-2.584,6.497-3.695,9.148c-1.905,4.551-3.636,9.198-5.83,13.61
		c-14.291,28.773-42.933,33.536-66.197,11.202c-15.042-14.448-23.817-32.54-30.611-51.818c-1.454-4.126-2.59-8.359-4.079-13.205
		c25.912-14.662,39.934-37.669,48.209-64.583c4.038-13.145,3.356-26.556-2.24-39.435c-5.529-12.756-15.972-15.198-23.463-3.696
		c-7.628,11.701-14.88,25.002-17.291,38.491c-5.677,31.691-8.649,63.896-12.154,95.945c-2.263,20.645-3.521,41.387-5.223,61.969
		c-19.459,6.904-35.207-1.814-44.344-25.231c-2.114,4.844-3.368,9.244-5.775,12.895c-2.69,4.877-9.346,15.782-15.934,21.474
		c-13.717,11.849-29.799,7.997-38.452-7.909c-8.927-16.411-8.989-34.303-7.792-52.149c2.237-33.575,5.128-67.1,7.483-100.668
		c0.357-5.045-0.058-9.616-1.136-15.282c-0.568-2.625-1.542-1.833-2.32-1.052c-2.698,2.449-5.446,5.506-7.473,8.706
		c-11.369,17.946-14.169,38.444-16.021,58.894c-3.727,41.188-6.676,82.446-9.926,123.678c27.883,10.031,57.925,15.525,89.263,15.525
		c72.054,0,137.326-28.926,184.925-75.765c-1.32-1.76-2.544-3.696-3.622-5.86C476.158,552.874,474.5,548.24,472.035,542.369z"/>
	<path d="M263.068,214.782c0-8.649-7.014-15.667-15.667-15.667s-15.667,7.018-15.667,15.667c0,8.653,7.015,15.667,15.667,15.667
		S263.068,223.435,263.068,214.782z"/>
	<path d="M234.896,279.718c0-8.611-6.981-15.587-15.592-15.587s-15.59,6.977-15.59,15.587c0,7.201,4.907,13.203,11.544,14.993
		c-1.223,1.25-1.981,2.957-1.981,4.847c0,3.825,3.105,6.935,6.937,6.935c3.831,0,6.936-3.109,6.936-6.935
		c0-2.119-0.969-3.989-2.462-5.262C230.637,292.097,234.896,286.428,234.896,279.718z"/>
	<path d="M385.328,263.063c0-9.053-7.339-16.391-16.395-16.391c-9.054,0-16.396,7.338-16.396,16.391
		c0,9.057,7.342,16.399,16.396,16.399C377.989,279.463,385.328,272.121,385.328,263.063z"/>
	<path d="M277.082,250.646c-2.263,2.774-3.681,6.272-3.681,10.131c0,8.897,7.209,16.11,16.102,16.11
		c8.897,0,16.11-7.213,16.11-16.11c0-8.397-6.454-15.217-14.661-15.957c2.088-2.652,3.386-5.959,3.386-9.598
		c0-8.607-6.979-15.586-15.59-15.586s-15.591,6.979-15.591,15.586C263.156,243.267,269.263,249.805,277.082,250.646z"/>
	<circle cx="305.971" cy="206.426" r="15.778"/>
	<circle cx="168.624" cy="259.894" r="15.627"/>
	<path d="M182.11,230.678c-1.81,2.08-2.945,4.762-2.945,7.734c0,6.53,5.297,11.823,11.828,11.823
		c6.526,0,11.819-5.293,11.819-11.823c0-5.064-3.198-9.351-7.67-11.035c3.463-2.857,5.715-7.132,5.715-11.972
		c0-8.611-6.98-15.59-15.591-15.59s-15.591,6.979-15.591,15.59C169.674,222.936,175.016,229.223,182.11,230.678z"/>
	<circle cx="367.443" cy="177.841" r="15.589"/>
	<circle cx="449.986" cy="258.035" r="15.59"/>
	<path d="M309.659,155.82c8.609,0,15.591-6.979,15.591-15.586c0-8.612-6.981-15.592-15.591-15.592
		c-8.612,0-15.591,6.979-15.591,15.592C294.068,148.84,301.047,155.82,309.659,155.82z"/>
	<path d="M410.577,223.286c5.743,0,10.397-4.652,10.397-10.394c0-5.746-4.654-10.402-10.397-10.402
		c-5.742,0-10.396,4.656-10.396,10.402C400.181,218.634,404.835,223.286,410.577,223.286z"/>
	<circle cx="222.901" cy="249.736" r="11.323"/>
	<path d="M130.742,260.777c0,5.747,4.656,10.402,10.397,10.402c5.743,0,10.398-4.656,10.398-10.402
		c0-5.741-4.656-10.397-10.398-10.397C135.398,250.38,130.742,255.036,130.742,260.777z"/>
	<path d="M443.87,209.844c6.558,0,11.873-5.319,11.873-11.872c0-6.562-5.315-11.876-11.873-11.876
		c-6.556,0-11.874,5.315-11.874,11.876C431.996,204.525,437.314,209.844,443.87,209.844z"/>
	<path d="M469.269,286.009c-5.74,0-10.396,4.655-10.396,10.394c0,5.746,4.656,10.401,10.396,10.401
		c5.742,0,10.398-4.656,10.398-10.401C479.667,290.664,475.011,286.009,469.269,286.009z"/>
	<path d="M141.212,197.446c6.108,0,11.057-4.949,11.057-11.057c0-6.111-4.949-11.061-11.057-11.061
		c-6.111,0-11.061,4.949-11.061,11.061C130.151,192.497,135.101,197.446,141.212,197.446z"/>
	<path d="M480.467,263.071c9.385,0,16.994-7.604,16.994-16.993c0-9.385-7.609-16.994-16.994-16.994
		c-9.384,0-16.989,7.609-16.989,16.994C463.478,255.467,471.083,263.071,480.467,263.071z"/>
	<circle cx="477.633" cy="213.376" r="11.13"/>
	<circle cx="101.13" cy="258.037" r="8.682"/>
	<path d="M222.425,174.432c4.946,0,9.065-3.49,10.063-8.138c2.854,3.193,6.957,5.243,11.579,5.243
		c8.611,0,15.591-6.981,15.591-15.588c0-8.611-6.98-15.59-15.591-15.59c-8.569,0-15.519,6.923-15.576,15.484
		c-1.704-1.25-3.791-2.012-6.066-2.012c-5.688,0-10.299,4.614-10.299,10.299C212.126,169.818,216.737,174.432,222.425,174.432z"/>
	<circle cx="103.869" cy="223.648" r="7.746"/>
	<circle cx="190.989" cy="155.995" r="10.92"/>
	<circle cx="367.443" cy="140.705" r="11.202"/>
	<path d="M302.428,240.386c0,3.834,3.109,6.934,6.937,6.934c3.831,0,6.939-3.1,6.939-6.934c0-3.833-3.108-6.935-6.939-6.935
		C305.537,233.451,302.428,236.553,302.428,240.386z"/>
	<path d="M410.539,273.625c0,4.195,3.404,7.598,7.599,7.598s7.597-3.403,7.597-7.598c0-4.199-3.402-7.597-7.597-7.597
		S410.539,269.426,410.539,273.625z"/>
	<path d="M431.742,234.629c5.591,0,10.124-4.531,10.124-10.124c0-5.586-4.533-10.12-10.124-10.12c-5.59,0-10.119,4.534-10.119,10.12
		C421.623,230.098,426.152,234.629,431.742,234.629z"/>
	<circle cx="442.351" cy="174.307" r="9.457"/>
	<path d="M338.623,234.709c-4.271,0-7.734,3.467-7.734,7.734c0,4.275,3.464,7.734,7.734,7.734c4.274,0,7.734-3.459,7.734-7.734
		C346.357,238.176,342.897,234.709,338.623,234.709z"/>
	<path d="M507.146,250.018c4.449,0,8.058-3.604,8.058-8.054c0-4.447-3.608-8.055-8.058-8.055c-4.446,0-8.056,3.608-8.056,8.055
		C499.091,246.414,502.7,250.018,507.146,250.018z"/>
	<circle cx="278.743" cy="161.489" r="7.373"/>
	<circle cx="72.992" cy="278.781" r="9.567"/>
	<path d="M337.176,212.267c-3.834,0-6.935,3.106-6.935,6.936c0,3.832,3.101,6.934,6.935,6.934c1.924,0,3.662-0.781,4.919-2.046
		c2.015,3.037,5.46,5.041,9.376,5.041c6.222,0,11.263-5.045,11.263-11.266c0-6.223-5.041-11.267-11.263-11.267
		c-4.667,0-8.671,2.843-10.379,6.885C339.976,212.717,338.631,212.267,337.176,212.267z"/>
	<path d="M236.851,242.443c0,3.989,3.235,7.224,7.22,7.224s7.22-3.235,7.22-7.224c0-3.985-3.234-7.217-7.22-7.217
		S236.851,238.458,236.851,242.443z"/>
	<path d="M145.206,239.845c0,3.833,3.105,6.938,6.935,6.938c3.833,0,6.938-3.105,6.938-6.938c0-3.826-3.105-6.935-6.938-6.935
		C148.311,232.91,145.206,236.019,145.206,239.845z"/>
	<circle cx="195.941" cy="268.048" r="9.061"/>
	<path d="M489.334,274.14c0-3.917-3.175-7.091-7.092-7.091c-3.921,0-7.095,3.174-7.095,7.091s3.174,7.09,7.095,7.09
		C486.159,281.23,489.334,278.057,489.334,274.14z"/>
	<path d="M153.832,283.472c0,3.828,3.106,6.934,6.934,6.934c3.83,0,6.939-3.106,6.939-6.934c0-3.833-3.109-6.935-6.939-6.935
		C156.938,276.537,153.832,279.638,153.832,283.472z"/>
	<circle cx="333.183" cy="182.365" r="9.506"/>
	<path d="M352.538,290.406c3.828,0,6.935-3.102,6.935-6.934c0-3.833-3.106-6.935-6.935-6.935c-3.833,0-6.938,3.102-6.938,6.935
		C345.6,287.304,348.705,290.406,352.538,290.406z"/>
	<path d="M215.887,216.184c5.042,0,9.126-4.084,9.126-9.122c0-5.037-4.085-9.122-9.126-9.122c-5.036,0-9.121,4.085-9.121,9.122
		C206.766,212.1,210.851,216.184,215.887,216.184z"/>
	<path d="M396.713,272.963c3.829,0,6.935-3.109,6.935-6.938c0-0.05-0.016-0.095-0.016-0.148c1.936,0.747,4.02,1.196,6.218,1.196
		c9.576,0,17.338-7.761,17.338-17.336c0-9.579-7.762-17.335-17.338-17.335c-9.575,0-17.339,7.757-17.339,17.335
		c0,3.505,1.06,6.759,2.849,9.491c-3.184,0.628-5.585,3.433-5.585,6.797C389.774,269.854,392.879,272.963,396.713,272.963z"/>
	<path d="M535.939,297.888c3.832,0,6.934-3.102,6.934-6.934c0-3.83-3.102-6.935-6.934-6.935c-3.834,0-6.935,3.105-6.935,6.935
		C529.005,294.787,532.105,297.888,535.939,297.888z"/>
	<path fill="#FFFFFF" d="M521.152,514.118c2.556-31.583,5.299-63.15,8.096-94.713c1.074-12.116-0.804-15.069-12.938-15.926
		c-5.007-0.35-10.551,0.29-15.154,2.176c-17.005,6.953-23.432,21.835-25.264,38.504c-2.667,24.184-4.603,48.484-5.658,72.793
		c-0.64,15.039-5.731,28.355-12.33,41.23c-4.537,8.851-12.317,9.582-19.665,2.304c-11.841-11.72-17.499-26.776-22.06-42.085
		c27.371-22.45,40.267-43.33,45.284-72.813c2.655-15.625,1.063-30.71-6.718-44.64c-7.682-13.747-18.921-23.364-35.435-22.595
		c-19.504,0.907-35.389,9.244-45,27.136c-3.408,6.336-6.505,12.833-10.262,20.292c-0.111-2.05-0.229-2.85-0.175-3.639
		c1.264-19.107,3.427-38.204,3.611-57.319c0.236-26.119-19.082-41.261-43.36-35.67c-5.38,1.234-7.052,3.852-7.006,9.087
		c0.092,10.668,0.087,21.375-0.645,32.005c-4.091,59.784-7.887,119.593-13.061,179.282c-1.124,12.945-5.745,26.134-11.544,38.093
		c-0.605,1.254-2.351,3.514-5.075,4.847c-0.572-6.072-1.524-10.349-1.281-14.545c1.353-22.665,2.61-45.339,4.649-67.94
		c1.993-22.209,3.189-44.281-1.894-66.262c-4.298-18.57-14.696-29.685-28.618-28.988c-11.77,0.586-20.41,7.666-27.158,16.643
		c-4.687,6.226-8.23,13.316-12.841,20.94c-0.628-3.681-0.983-6.584-1.638-9.418c-3.574-15.454-14.215-24.691-29.86-26.013
		c-14.207-1.208-17.423,1.818-18.182,15.756c-2.133,39.35-5.01,78.671-6.541,118.045c-0.625,16.14-3.483,31.515-8.836,46.358
		c16.559,10.652,34.356,19.534,53.178,26.306c3.25-41.231,6.199-82.49,9.926-123.678c1.852-20.449,4.651-40.947,16.021-58.894
		c2.027-3.2,4.774-6.257,7.473-8.706c0.777-0.781,1.752-1.573,2.32,1.052c1.078,5.666,1.493,10.237,1.136,15.282
		c-2.355,33.568-5.247,67.093-7.483,100.668c-1.197,17.847-1.135,35.738,7.792,52.149c8.653,15.906,24.735,19.758,38.452,7.909
		c6.588-5.691,13.244-16.597,15.934-21.474c2.407-3.65,3.661-8.051,5.775-12.895c9.137,23.417,24.885,32.136,44.344,25.231
		c1.701-20.582,2.96-41.324,5.223-61.969c3.505-32.05,6.478-64.254,12.154-95.945c2.411-13.488,9.663-26.79,17.291-38.491
		c7.491-11.502,17.934-9.061,23.463,3.696c5.597,12.879,6.278,26.29,2.24,39.435c-8.275,26.914-22.297,49.921-48.209,64.583
		c1.489,4.846,2.625,9.079,4.079,13.205c6.794,19.278,15.569,37.37,30.611,51.818c23.265,22.334,51.906,17.571,66.197-11.202
		c2.194-4.412,3.925-9.06,5.83-13.61c1.111-2.651,2.161-5.325,3.695-9.148c2.465,5.871,4.123,10.505,6.303,14.883
		c1.078,2.164,2.302,4.101,3.622,5.86C496.881,548.432,510.049,531.987,521.152,514.118z"/>
	<path fill="#FFFFFF" d="M141.727,588.244c2.778-34.615,5.803-69.208,8.866-103.791c1.098-12.475-0.895-15.402-13.564-16.142
		c-4.751-0.273-9.921,0.432-14.349,2.138c-15.176,5.849-22.51,18.696-24.465,33.565c-1.726,13.178-2.934,26.43-3.974,39.7
		C108.16,560.442,124.124,575.392,141.727,588.244z"/>
	<path fill="#FFFFFF" d="M481.244,381.655c9.781,8.306,21.211,9.445,33.359,7.46c3.191-0.762,6.544-1.174,9.577-2.362
		c9.129-3.582,16.369-9.506,18.254-19.523c1.528-8.184-3.272-14.112-9.543-18.761c-15.562-11.537-43.131-7.879-54.494,7.163
		C471.266,365.081,472.188,373.962,481.244,381.655z"/>
	<path fill="#FFFFFF" d="M102.28,446.243c9.705,8.413,21.078,9.74,33.724,8.803c9.278-1.44,13.728-4.55,18.35-8.509
		c12.242-10.485,12.871-23.173,0.214-32.9c-15.523-11.941-43.604-8.271-55.049,7.186C92.759,429.933,93.704,438.806,102.28,446.243z
		"/>
</g>
</svg>
